<svg width="19" height="21" viewBox="0 0 19 21" fill="none" xmlns="http://www.w3.org/2000/svg">
<g id="Apple logo" clip-path="url(#clip0_1_266)">
<path id="Vector" d="M15.0717 11.0607C15.0625 9.3458 15.8278 8.0514 17.3768 7.09813C16.5101 5.84112 15.2008 5.14953 13.4721 5.01402C11.8355 4.88318 10.0468 5.98131 9.39218 5.98131C8.70067 5.98131 7.11482 5.06075 5.87011 5.06075C3.29771 5.1028 0.563965 7.14019 0.563965 11.285C0.563965 12.5093 0.785246 13.7741 1.22781 15.0794C1.81789 16.7944 3.94773 21 6.16976 20.9299C7.33149 20.9019 8.15208 20.0935 9.66417 20.0935C11.1302 20.0935 11.8908 20.9299 13.1862 20.9299C15.4267 20.8972 17.3537 17.0748 17.9161 15.3551C14.9104 13.9206 15.0717 11.1495 15.0717 11.0607V11.0607ZM12.4625 3.38785C13.721 1.87383 13.6057 0.495327 13.5689 0C12.4579 0.0654206 11.1717 0.766355 10.4387 1.63084C9.6319 2.55607 9.15707 3.70093 9.25849 4.99065C10.4617 5.08411 11.5589 4.45794 12.4625 3.38785V3.38785Z" fill="black"/>
</g>
<defs>
<clipPath id="clip0_1_266">
<rect width="18.48" height="21" fill="white"/>
</clipPath>
</defs>
</svg>
