<svg width="20" height="20" viewBox="0 0 20 20" fill="none" xmlns="http://www.w3.org/2000/svg">
<g id="Google logo" clip-path="url(#clip0_1_261)">
<path id="Vector" d="M19.1304 10.2216C19.1304 9.40171 19.0653 8.80342 18.9243 8.18298H9.76038V11.8834H15.1394C15.031 12.8031 14.4454 14.188 13.144 15.1186L13.1257 15.2425L16.0232 17.5357L16.2239 17.5561C18.0675 15.8166 19.1304 13.2573 19.1304 10.2216" fill="#4285F4"/>
<path id="Vector_2" d="M9.76048 19.9714C12.3958 19.9714 14.6081 19.085 16.224 17.5561L13.1441 15.1186C12.3199 15.7058 11.2137 16.1158 9.76048 16.1158C7.1794 16.1158 4.98875 14.3764 4.20784 11.9721L4.09337 11.9821L1.08054 14.3641L1.04114 14.476C2.64617 17.7333 5.94303 19.9714 9.76048 19.9714Z" fill="#34A853"/>
<path id="Vector_3" d="M4.20779 11.9721C4.00174 11.3517 3.88249 10.6869 3.88249 10C3.88249 9.31305 4.00174 8.64831 4.19695 8.02788L4.19149 7.89574L1.1409 5.4754L1.04109 5.5239C0.379576 6.8756 0 8.39351 0 10C0 11.6065 0.379576 13.1243 1.04109 14.476L4.20779 11.9721" fill="#FBBC05"/>
<path id="Vector_4" d="M9.76048 3.88416C11.5932 3.88416 12.8295 4.69295 13.5345 5.36884L16.2891 2.62114C14.5973 1.01463 12.3958 0.0285645 9.76048 0.0285645C5.94303 0.0285645 2.64617 2.26658 1.04114 5.52389L4.197 8.02786C4.98875 5.62364 7.1794 3.88416 9.76048 3.88416" fill="#EB4335"/>
</g>
<defs>
<clipPath id="clip0_1_261">
<rect width="19.1304" height="20" fill="white"/>
</clipPath>
</defs>
</svg>
